<?xml version="1.0" encoding="utf-8"?>
<!-- Generator: Adobe Illustrator 22.1.0, SVG Export Plug-In . SVG Version: 6.00 Build 0)  -->
<svg version="1.1" id="Livello_1" xmlns="http://www.w3.org/2000/svg" xmlns:xlink="http://www.w3.org/1999/xlink" x="0px" y="0px"
	 viewBox="0 0 180 180" style="enable-background:new 0 0 180 180;" xml:space="preserve">
<style type="text/css">
	.st0{clip-path:url(#SVGID_2_);fill:#363636;}
	.st1{clip-path:url(#SVGID_2_);}
	.st2{clip-path:url(#SVGID_4_);fill:#EF434D;}
	.st3{clip-path:url(#SVGID_4_);fill:none;stroke:#FFFFFF;stroke-width:3.8173;stroke-miterlimit:10;}
</style>
<g id="IF_1_">
	<g>
		<defs>
			<rect id="SVGID_1_" x="13" y="35" width="157" height="116.3"/>
		</defs>
		<clipPath id="SVGID_2_">
			<use xlink:href="#SVGID_1_"  style="overflow:visible;"/>
		</clipPath>
		<polygon class="st0" points="13,35 13,131.8 36.3,132.3 36.3,35 		"/>
		<polygon class="st0" points="52.5,35 52.5,131.8 75.8,131.8 75.8,93.2 113.4,93.2 113.4,75.3 75.8,75.3 75.8,53 117.2,53 
			117.2,35 		"/>
		<g class="st1">
			<defs>
				<rect id="SVGID_3_" x="13" y="35" width="157" height="116.3"/>
			</defs>
			<clipPath id="SVGID_4_">
				<use xlink:href="#SVGID_3_"  style="overflow:visible;"/>
			</clipPath>
			<path class="st2" d="M29.9,132.2c9.1-2.1,75-15.5,75-15.5l34.2-38.4l14.5,10.9l-38.1,43.2l-82.5,17c0,0-6.7,0.2-8.1-7.2
				C23.4,134.9,29.9,132.2,29.9,132.2"/>
			<path class="st3" d="M29.9,132.2c9.1-2.1,75-15.5,75-15.5l34.2-38.4l14.5,10.9l-38.1,43.2l-82.5,17c0,0-6.7,0.2-8.1-7.2
				C23.4,134.9,29.9,132.2,29.9,132.2z"/>
			<polygon class="st2" points="122.5,71.1 164.5,102.7 170,51.7 			"/>
		</g>
	</g>
</g>
</svg>
