<?xml version="1.0" encoding="utf-8"?>
<!-- Generator: Adobe Illustrator 22.1.0, SVG Export Plug-In . SVG Version: 6.00 Build 0)  -->
<svg version="1.1" id="Livello_1" xmlns="http://www.w3.org/2000/svg" xmlns:xlink="http://www.w3.org/1999/xlink" x="0px" y="0px"
	 viewBox="0 0 180 180" style="enable-background:new 0 0 180 180;" xml:space="preserve">
<style type="text/css">
	.st0{clip-path:url(#SVGID_2_);fill:#363636;}
	.st1{clip-path:url(#SVGID_2_);}
	.st2{clip-path:url(#SVGID_4_);}
	.st3{clip-path:url(#SVGID_4_);fill:#F77D71;}
	.st4{clip-path:url(#SVGID_4_);fill:#EF434D;}
	.st5{clip-path:url(#SVGID_4_);fill:#363636;}
	.st6{clip-path:url(#SVGID_4_);fill:#FFFFFF;}
	.st7{clip-path:url(#SVGID_4_);fill:#D7D7D7;}
	.st8{clip-path:url(#SVGID_4_);fill:none;stroke:#EF434D;stroke-width:4.6068;stroke-linecap:square;}
	.st9{clip-path:url(#SVGID_4_);fill:none;stroke:#363636;stroke-width:4.6068;stroke-linecap:square;}
	.st10{clip-path:url(#SVGID_4_);fill:none;stroke:#363636;stroke-width:2.2904;stroke-linecap:square;}
</style>
<g id="Reports_1_">
	<g>
		<defs>
			<rect id="SVGID_1_" x="15.7" y="8" width="148.6" height="165"/>
		</defs>
		<clipPath id="SVGID_2_">
			<use xlink:href="#SVGID_1_"  style="overflow:visible;"/>
		</clipPath>
		<rect x="81.9" y="56.4" class="st0" width="15.2" height="116.6"/>
		<g class="st1">
			<defs>
				<rect id="SVGID_3_" x="15.7" y="8" width="148.6" height="165"/>
			</defs>
			<clipPath id="SVGID_4_">
				<use xlink:href="#SVGID_3_"  style="overflow:visible;"/>
			</clipPath>
			<path class="st2" d="M138,172.3L43.3,77.6l4.4-4.4l94.7,94.7c0.6,0.6,0.6,1.7,0,2.3l-2,2C139.7,173,138.7,173,138,172.3"/>
			<path class="st2" d="M38.8,164.7l92.5-92.5l5.1,5.1l-92.5,92.5c-0.9,0.9-2.2,0.9-3.1,0l-2-2C37.9,166.9,37.9,165.5,38.8,164.7"/>
			<path class="st3" d="M107.3,116.9c0,9.8-8,17.8-17.8,17.8c-9.8,0-17.8-8-17.8-17.8c0-9.8,8-17.8,17.8-17.8
				C99.4,99.1,107.3,107.1,107.3,116.9"/>
			<path class="st4" d="M107.3,115.1c0,9.8-8,17.8-17.8,17.8c-9.8,0-17.8-8-17.8-17.8c0-9.8,8-17.8,17.8-17.8
				C99.4,97.3,107.3,105.3,107.3,115.1"/>
			<path class="st5" d="M15.7,118V14c0-3.3,2.7-6,6-6h136.6c3.3,0,6,2.7,6,6v104c0,3.3-2.7,6-6,6H21.7
				C18.4,123.9,15.7,121.3,15.7,118"/>
			<path class="st6" d="M33.5,117.8l112.6-0.1l12.9-13l-0.2-87.2c0-1.8-1.5-3.3-3.3-3.3L33.2,14.3c-5.7,0,119-0.2,113.3-0.1
				L24.3,14.3c-1.8,0-3.3,1.5-3.3,3.3l0.3,96.9c0,1.8,1.5,3.3,3.3,3.3l118.7-0.2C149,117.6,27.8,117.8,33.5,117.8"/>
			<path class="st7" d="M158.8,105l-12.9,13l0-11.3c0-0.9,0.7-1.6,1.6-1.6L158.8,105z"/>
			<line class="st8" x1="101.1" y1="95.2" x2="101.1" y2="63.3"/>
			<line class="st9" x1="123.8" y1="95.4" x2="123.8" y2="63.3"/>
			<line class="st9" x1="112.8" y1="95.3" x2="112.8" y2="57.8"/>
			<line class="st10" x1="42" y1="98.7" x2="133.6" y2="98.7"/>
			<line class="st10" x1="42" y1="97.6" x2="42" y2="33.6"/>
			<line class="st9" x1="77.4" y1="95.2" x2="77.4" y2="46.6"/>
			<line class="st8" x1="89.2" y1="56.2" x2="89.2" y2="95.2"/>
			<line class="st8" x1="65.5" y1="95.2" x2="65.5" y2="57.3"/>
			<line class="st8" x1="53.7" y1="95.4" x2="53.7" y2="68.8"/>
			<polyline class="st10" points="43.3,66.6 78.1,32.3 89.2,47.8 101.1,52.1 112.8,49.6 126.6,55.2 			"/>
			<polygon class="st5" points="128.1,52.9 126.3,57.8 133.2,57.6 			"/>
			<polygon class="st5" points="133.4,96.2 133.4,101 139.4,98.6 			"/>
			<polygon class="st5" points="39.6,35.4 44.4,35.4 42,29.4 			"/>
		</g>
	</g>
</g>
</svg>
