<?xml version="1.0" encoding="utf-8"?>
<!-- Generator: Adobe Illustrator 22.1.0, SVG Export Plug-In . SVG Version: 6.00 Build 0)  -->
<svg version="1.1" id="Livello_1" xmlns="http://www.w3.org/2000/svg" xmlns:xlink="http://www.w3.org/1999/xlink" x="0px" y="0px"
	 viewBox="0 0 180 180" style="enable-background:new 0 0 180 180;" xml:space="preserve">
<style type="text/css">
	.st0{clip-path:url(#SVGID_2_);}
	.st1{clip-path:url(#SVGID_4_);}
	.st2{clip-path:url(#SVGID_4_);fill:#F04B54;}
</style>
<g id="Artwork_59_1_">
	<g>
		<defs>
			<rect id="SVGID_1_" x="13" y="14" width="152" height="152"/>
		</defs>
		<clipPath id="SVGID_2_">
			<use xlink:href="#SVGID_1_"  style="overflow:visible;"/>
		</clipPath>
		<g class="st0">
			<defs>
				<rect id="SVGID_3_" x="13" y="14" width="152" height="152"/>
			</defs>
			<clipPath id="SVGID_4_">
				<use xlink:href="#SVGID_3_"  style="overflow:visible;"/>
			</clipPath>
			<path class="st1" d="M148.2,20.5c-1.3-1.8-2.3-3.6-3.1-5.1c2.7-0.4,5.3-0.7,8.1-0.9c0.3,0,0.6-0.1,0.9-0.2
				c2.6,0.1,5.2,0.1,7.8,0.2c0.3,0.1,0.7,0.3,1,0.3c1.1,0.2,1.8,0.8,1.9,1.9c0.1,2.5,0.3,4.9,0.2,7.4c-0.1,3.5-0.5,7-1.2,10.4
				C157.5,31.1,152.3,26.4,148.2,20.5"/>
			<path class="st1" d="M158.2,52.7c-13-7.8-21.1-17-25.9-24.4c-1.9-2.9-3.5-5.7-4.7-8.2c4.6-1.7,9.2-3,14-4c0.9,1.9,2.1,4,3.7,6.3
				c1.4,2.1,3.3,4.4,5.6,6.7c3.1,3.1,7.1,6.3,12.2,8.9c-0.4,1.8-0.9,3.7-1.5,5.5C160.6,46.6,159.5,49.7,158.2,52.7"/>
			<path class="st2" d="M124,55.3c-7.6-7.6-19.8-7.5-27.3,0c-7.5,7.5-7.6,19.8,0,27.3c7.5,7.5,19.8,7.5,27.3,0
				C131.5,75.1,131.5,62.8,124,55.3 M121.2,79.7c-6,6-15.7,6-21.7,0c-6-6-6-15.7,0-21.6c6-6,15.7-6,21.7,0
				C127.1,64.1,127.1,73.8,121.2,79.7 M124,55.3c-7.6-7.6-19.8-7.5-27.3,0c-7.5,7.5-7.6,19.8,0,27.3c7.5,7.5,19.8,7.5,27.3,0
				C131.5,75.1,131.5,62.8,124,55.3 M121.2,79.7c-6,6-15.7,6-21.7,0c-6-6-6-15.7,0-21.6c6-6,15.7-6,21.7,0
				C127.1,64.1,127.1,73.8,121.2,79.7 M124,55.3c-7.6-7.6-19.8-7.5-27.3,0c-7.5,7.5-7.6,19.8,0,27.3c7.5,7.5,19.8,7.5,27.3,0
				C131.5,75.1,131.5,62.8,124,55.3 M121.2,79.7c-6,6-15.7,6-21.7,0c-6-6-6-15.7,0-21.6c6-6,15.7-6,21.7,0
				C127.1,64.1,127.1,73.8,121.2,79.7 M124,55.3c-7.6-7.6-19.8-7.5-27.3,0c-7.5,7.5-7.6,19.8,0,27.3c7.5,7.5,19.8,7.5,27.3,0
				C131.5,75.1,131.5,62.8,124,55.3 M121.2,79.7c-6,6-15.7,6-21.7,0c-6-6-6-15.7,0-21.6c6-6,15.7-6,21.7,0
				C127.1,64.1,127.1,73.8,121.2,79.7 M124,55.3c-7.6-7.6-19.8-7.5-27.3,0c-7.5,7.5-7.6,19.8,0,27.3c7.5,7.5,19.8,7.5,27.3,0
				C131.5,75.1,131.5,62.8,124,55.3 M121.2,79.7c-6,6-15.7,6-21.7,0c-6-6-6-15.7,0-21.6c6-6,15.7-6,21.7,0
				C127.1,64.1,127.1,73.8,121.2,79.7 M147.3,48.5c-2.4-1.9-4.7-4-6.9-6.2c-3.8-3.8-7.2-7.9-10.1-12.3c-2-3.1-3.6-6-4.9-8.6
				c-0.2,0.1-0.4,0.2-0.7,0.2c-10,4-19.3,9.2-28.1,15.4c-4.5,3.1-8.9,6.5-13.1,10c-3.9,3.2-7.7,6.5-11.2,10.2
				c-4.5,4.6-8.6,9.6-12.9,14.4c-0.3,0.4-0.8,0.8-1.3,0.9c-7,1.8-13.9,3.6-21,5.2c-3.1,0.7-5.5,1.9-7.6,4.5
				C24.5,88.2,19.2,94,13.9,100c-1.5,1.7-1.2,2.7,0.9,3.4c7.8,2.5,15.6,5,23.4,7.5c1.1,0.4,1.6,0.9,1.5,2.1
				c-0.1,2.3,0.1,4.5,0.7,6.7c0,0,0,0.1,0.1,0.1c0.3,1,0.6,2,1.1,3c0.3,0.6,0.6,1.2,0.9,1.7c0.2,0.3,0.3,0.6,0.3,0.8
				c0.3,0.5,0.6,1,0.9,1.5c2.7,4.3,6.2,7.3,10.4,9c0.2,0,0.5,0,0.8,0.1c4.7,1.5,9.5,1.8,14.3,1c1-0.2,1.4,0.1,1.7,1.1
				c2.6,7.8,2.8,18.1,5.3,25.9c0.8,2.4,1.8,2.7,3.6,1c6.7-6,15.8-14.4,22.5-20.4c0.5-0.5,0.9-1.3,1.1-2.1c1.6-7.6,3.2-15.2,4.7-22.8
				c0.3-1.6,1.1-2.8,2.3-3.7c9.7-8,18.2-17.2,26.2-26.9c5.7-6.9,10.8-14.3,15.2-22.1c2.1-3.7,4-7.5,5.7-11.4
				C153.9,53.4,150.5,51.1,147.3,48.5 M121.2,79.7c-6,6-15.7,6-21.7,0c-6-6-6-15.7,0-21.6c6-6,15.7-6,21.7,0
				C127.1,64.1,127.1,73.8,121.2,79.7 M124,55.3c-7.6-7.6-19.8-7.5-27.3,0c-7.5,7.5-7.6,19.8,0,27.3c7.5,7.5,19.8,7.5,27.3,0
				C131.5,75.1,131.5,62.8,124,55.3 M121.2,79.7c-6,6-15.7,6-21.7,0c-6-6-6-15.7,0-21.6c6-6,15.7-6,21.7,0
				C127.1,64.1,127.1,73.8,121.2,79.7 M124,55.3c-7.6-7.6-19.8-7.5-27.3,0c-7.5,7.5-7.6,19.8,0,27.3c7.5,7.5,19.8,7.5,27.3,0
				C131.5,75.1,131.5,62.8,124,55.3 M121.2,79.7c-6,6-15.7,6-21.7,0c-6-6-6-15.7,0-21.6c6-6,15.7-6,21.7,0
				C127.1,64.1,127.1,73.8,121.2,79.7 M124,55.3c-7.6-7.6-19.8-7.5-27.3,0c-7.5,7.5-7.6,19.8,0,27.3c7.5,7.5,19.8,7.5,27.3,0
				C131.5,75.1,131.5,62.8,124,55.3 M121.2,79.7c-6,6-15.7,6-21.7,0c-6-6-6-15.7,0-21.6c6-6,15.7-6,21.7,0
				C127.1,64.1,127.1,73.8,121.2,79.7 M124,55.3c-7.6-7.6-19.8-7.5-27.3,0c-7.5,7.5-7.6,19.8,0,27.3c7.5,7.5,19.8,7.5,27.3,0
				C131.5,75.1,131.5,62.8,124,55.3 M121.2,79.7c-6,6-15.7,6-21.7,0c-6-6-6-15.7,0-21.6c6-6,15.7-6,21.7,0
				C127.1,64.1,127.1,73.8,121.2,79.7 M45.3,133c-1.4-1.4-2.7-3-3.8-4.9c-0.1-0.1-0.1-0.2-0.2-0.3c-2.2,2.3-4.5,4.4-6.6,6.8
				c-1,1.2-1,1.9,0.1,3c2.3,2.3,4.5,4.6,6.8,6.8c1.2,1.1,1.8,1.1,3,0c2.3-2.4,4.9-4.5,7.3-6.9C49.5,136.5,47.3,135,45.3,133"/>
			<path class="st1" d="M127.7,51.6c-9.6-9.6-25.2-9.6-34.7,0s-9.6,25.1,0,34.7c9.6,9.6,25.2,9.6,34.7,0
				C137.3,76.7,137.3,61.1,127.7,51.6 M99.5,79.7c-6-6-6-15.7,0-21.6c6-6,15.7-6,21.7,0c6,6,6,15.7,0,21.6
				C115.2,85.7,105.5,85.8,99.5,79.7"/>
		</g>
	</g>
</g>
</svg>
