<?xml version="1.0" encoding="utf-8"?>
<!-- Generator: Adobe Illustrator 22.1.0, SVG Export Plug-In . SVG Version: 6.00 Build 0)  -->
<svg version="1.1" id="Livello_1" xmlns="http://www.w3.org/2000/svg" xmlns:xlink="http://www.w3.org/1999/xlink" x="0px" y="0px"
	 viewBox="0 0 180 180" style="enable-background:new 0 0 180 180;" xml:space="preserve">
<style type="text/css">
	.st0{clip-path:url(#SVGID_2_);}
	.st1{clip-path:url(#SVGID_4_);fill:#363636;}
	.st2{clip-path:url(#SVGID_4_);fill:#FFFFFF;}
	.st3{clip-path:url(#SVGID_4_);fill:#D7D7D7;}
	.st4{clip-path:url(#SVGID_4_);fill:none;stroke:#EF434D;stroke-width:7.7597;stroke-linecap:square;}
	.st5{clip-path:url(#SVGID_4_);fill:none;stroke:#363636;stroke-width:7.7597;stroke-linecap:square;}
	.st6{clip-path:url(#SVGID_4_);fill:none;stroke:#363636;stroke-width:2.9104;stroke-linecap:square;}
	.st7{clip-path:url(#SVGID_4_);fill:#F26971;}
	.st8{clip-path:url(#SVGID_4_);fill:#EF434D;}
	.st9{clip-path:url(#SVGID_4_);fill:none;stroke:#FFFFFF;stroke-width:4.3155;stroke-miterlimit:10;}
	.st10{clip-path:url(#SVGID_4_);fill:#FAA8A1;}
	.st11{clip-path:url(#SVGID_4_);fill:#F77D71;}
	.st12{clip-path:url(#SVGID_4_);fill:#6D6A6D;}
	.st13{clip-path:url(#SVGID_4_);}
	.st14{clip-path:url(#SVGID_4_);fill:#525052;}
</style>
<g id="Study_1_">
	<g>
		<defs>
			<rect id="SVGID_1_" x="11" y="10" width="157" height="157"/>
		</defs>
		<clipPath id="SVGID_2_">
			<use xlink:href="#SVGID_1_"  style="overflow:visible;"/>
		</clipPath>
		<g class="st0">
			<defs>
				<rect id="SVGID_3_" x="11" y="10" width="157" height="157"/>
			</defs>
			<clipPath id="SVGID_4_">
				<use xlink:href="#SVGID_3_"  style="overflow:visible;"/>
			</clipPath>
			<path class="st1" d="M-3.4,149.7V17.6c0-4.2,3.4-7.6,7.6-7.6h173.6c4.2,0,7.6,3.4,7.6,7.6v132.1c0,4.2-3.4,7.6-7.6,7.6H4.2
				C0,157.3-3.4,153.9-3.4,149.7"/>
			<path class="st2" d="M19.2,149.5l143-0.2l16.4-16.5L178.3,22c0-2.3-1.9-4.2-4.2-4.2L18.9,18c-7.3,0,151.2-0.2,144-0.2L7.6,18
				c-2.3,0-4.2,1.9-4.2,4.2l0.3,123.1c0,2.3,1.9,4.2,4.2,4.2l150.8-0.2C166,149.3,12,149.5,19.2,149.5"/>
			<path class="st3" d="M178.4,133.2L162,149.7l0-14.4c0-1.1,0.9-2.1,2.1-2.1L178.4,133.2z"/>
			<line class="st4" x1="105.1" y1="120.7" x2="105.1" y2="80.2"/>
			<line class="st5" x1="134" y1="121" x2="134" y2="80.2"/>
			<line class="st5" x1="120" y1="121" x2="120" y2="73.2"/>
			<line class="st6" x1="30" y1="125.2" x2="146.4" y2="125.2"/>
			<line class="st6" x1="30" y1="123.8" x2="30" y2="42.5"/>
			<line class="st5" x1="75" y1="120.7" x2="75" y2="59"/>
			<line class="st4" x1="90" y1="71.3" x2="90" y2="119.9"/>
			<line class="st4" x1="59.9" y1="119.9" x2="59.9" y2="72.6"/>
			<line class="st4" x1="44.8" y1="120" x2="44.8" y2="87.2"/>
			<polyline class="st6" points="31.7,83.1 75.8,39.4 90,59.2 105.1,64.7 120,61.4 137.5,68.5 			"/>
			<polygon class="st1" points="139.5,65.6 137.2,71.8 146,71.6 			"/>
			<polygon class="st1" points="146.1,122 146.1,128.2 153.7,125.1 			"/>
			<polygon class="st1" points="26.9,44.8 33.1,44.8 30,37.2 			"/>
			<path class="st7" d="M80.9,111.6l9.3,7.2l-42.9,62.9c-3.3,5.1-10.4,6.3-15.2,2.6c-4.8-3.7-5.5-10.8-1.3-15.4L80.9,111.6z"/>
			<path class="st8" d="M30.7,169L58,136.8c0.2,0.2,0.4,0.5,0.6,0.6l6.1,4.7l-32.6,42.2C27.2,180.6,26.6,173.5,30.7,169"/>
			<path class="st8" d="M61.2,82c13.4-17.3,38.2-20.5,55.5-7.1c17.3,13.4,20.5,38.2,7.1,55.5c-13.4,17.3-38.2,20.5-55.5,7.1
				C51,124.1,47.9,99.3,61.2,82"/>
			<path class="st9" d="M61.2,82c13.4-17.3,38.2-20.5,55.5-7.1c17.3,13.4,20.5,38.2,7.1,55.5c-13.4,17.3-38.2,20.5-55.5,7.1
				C51,124.1,47.9,99.3,61.2,82z"/>
			<path class="st2" d="M69.2,88.2C79.2,75.4,97.6,73,110.5,83c12.8,9.9,15.2,28.4,5.3,41.2c-9.9,12.8-28.4,15.2-41.2,5.3
				C61.7,119.5,59.3,101.1,69.2,88.2"/>
			<path class="st10" d="M61.2,128.4L79,142.2l-3.1,4c-1.2,1.6-3.5,1.9-5.1,0.7l-12.2-9.5c-1.6-1.2-1.9-3.5-0.7-5.1L61.2,128.4z"/>
			<path class="st11" d="M57.9,132.3l3.2-4l9,7l-5.4,6.9l-6.1-4.7C57,136.2,56.7,133.9,57.9,132.3"/>
			<rect x="88.8" y="89.6" class="st1" width="7.5" height="31.9"/>
			<rect x="94.8" y="89.6" class="st12" width="1.5" height="31.9"/>
			<rect x="88.8" y="100.3" class="st13" width="6" height="2.3"/>
			<rect x="75.8" y="102.7" class="st1" width="31.9" height="7.4"/>
			<rect x="88.8" y="110.1" class="st13" width="6" height="2.3"/>
			<rect x="94.8" y="110.1" class="st14" width="1.5" height="2.3"/>
			<rect x="94.8" y="100.3" class="st14" width="1.5" height="2.3"/>
			<rect x="106.5" y="102.7" class="st12" width="1.2" height="7.4"/>
		</g>
	</g>
</g>
</svg>
