<?xml version="1.0" encoding="utf-8"?>
<!-- Generator: Adobe Illustrator 22.1.0, SVG Export Plug-In . SVG Version: 6.00 Build 0)  -->
<svg version="1.1" id="Livello_1" xmlns="http://www.w3.org/2000/svg" xmlns:xlink="http://www.w3.org/1999/xlink" x="0px" y="0px"
	 viewBox="0 0 180 180" style="enable-background:new 0 0 180 180;" xml:space="preserve">
<style type="text/css">
	.st0{clip-path:url(#SVGID_2_);}
	.st1{clip-path:url(#SVGID_4_);fill:#363636;}
	.st2{clip-path:url(#SVGID_4_);fill:#FFFFFF;}
	.st3{clip-path:url(#SVGID_4_);fill-rule:evenodd;clip-rule:evenodd;fill:#F26971;}
	.st4{clip-path:url(#SVGID_4_);fill:#D7D7D7;}
	.st5{clip-path:url(#SVGID_4_);fill:none;stroke:#363636;stroke-width:7.8282;stroke-miterlimit:10;}
	.st6{clip-path:url(#SVGID_4_);fill-rule:evenodd;clip-rule:evenodd;}
	.st7{clip-path:url(#SVGID_4_);fill:#FAA8A1;}
	.st8{clip-path:url(#SVGID_4_);fill:#F26971;}
	.st9{clip-path:url(#SVGID_4_);fill:#EF434D;}
	.st10{clip-path:url(#SVGID_4_);fill-rule:evenodd;clip-rule:evenodd;fill:#FAA8A1;}
	.st11{clip-path:url(#SVGID_4_);fill-rule:evenodd;clip-rule:evenodd;fill:#EF434D;}
	.st12{clip-path:url(#SVGID_4_);}
</style>
<g id="Target_1_">
	<g>
		<defs>
			<rect id="SVGID_1_" x="9" y="7" width="166" height="169.8"/>
		</defs>
		<clipPath id="SVGID_2_">
			<use xlink:href="#SVGID_1_"  style="overflow:visible;"/>
		</clipPath>
		<g class="st0">
			<defs>
				<rect id="SVGID_3_" x="9" y="7" width="166" height="169.8"/>
			</defs>
			<clipPath id="SVGID_4_">
				<use xlink:href="#SVGID_3_"  style="overflow:visible;"/>
			</clipPath>
			<path class="st1" d="M79.8,170.4C40.7,170.4,9,138.7,9,99.5c0-39.1,31.7-70.8,70.8-70.8c39.1,0,70.8,31.7,70.8,70.8
				C150.7,138.7,119,170.4,79.8,170.4"/>
			<path class="st1" d="M79.6,162.6c-34.8,0-63-28.2-63-63s28.2-63,63-63c34.8,0,63,28.2,63,63S114.4,162.6,79.6,162.6"/>
			<path class="st2" d="M79.9,155.6c-31,0-56.2-25.2-56.2-56.2c0-31,25.2-56.2,56.2-56.2c31,0,56.2,25.2,56.2,56.2
				C136.1,130.5,110.9,155.6,79.9,155.6"/>
			<polygon class="st3" points="175,23.9 160.5,21.5 158.1,7 127.1,38 128.4,48.2 94,82 100,88 133.9,54 144,54.9 			"/>
			<path class="st4" d="M124.1,75l4.3-4c0,0-2.4-4.1-5.9-8.1l-6.9-5.7L90.8,81.5L84,101.5c-0.2,0.7,0,1.4,0.4,1.8
				c0.4,0.4,1.1,0.7,1.8,0.4l2.2,4.4L124.1,75z"/>
			<path class="st5" d="M114.5,98.8c0,19.2-15.5,34.7-34.7,34.7S45.2,118,45.2,98.8s15.5-34.7,34.7-34.7S114.5,79.7,114.5,98.8z"/>
			<path class="st6" d="M128.4,71c0,0-2.9-4.8-6.4-8.5c-2.2-2.4-6.5-6.2-6.5-6.2l11.5-9.5c0,0,3.3,3,5.8,5.8c4,4.5,6.7,8.8,6.7,8.8
				L128.4,71z"/>
			<path class="st7" d="M125,46.4l-58.4,56.1l2.6,2.7l59.3-56.9l-1.7-1.8C126.3,45.9,125.5,45.9,125,46.4"/>
			<path class="st8" d="M134,53.9c0,0-0.9-2.3-2.2-3.6c-1.3-1.3-3.3-2.2-3.3-2.2l-59.3,56.9l5.5,5.8L134,53.9z"/>
			<path class="st9" d="M77.3,113.5l58.4-55.9c0.5-0.5,0.5-1.3,0-1.7l-1.7-2l-59.3,56.9L77.3,113.5z"/>
			<path class="st9" d="M79.8,84.6c-8.2,0-14.8,6.6-14.8,14.8c0,8.2,6.6,14.8,14.8,14.8s14.8-6.6,14.8-14.8
				C94.7,91.2,88,84.6,79.8,84.6"/>
			<polygon class="st10" points="128.4,48.2 127.1,38 158.1,7 159.8,17.4 			"/>
			<polyline class="st11" points="175,23.9 144,54.9 133.9,54 166,22.4 			"/>
			<path class="st12" d="M113.1,79.2c0,0,0.5,0.9,1.1,2c0.8,1.6,1,2,1,2L109,89c0,0-0.4-1.2-0.8-2.1c-0.4-0.9-1-2-1-2L113.1,79.2z"
				/>
		</g>
	</g>
</g>
</svg>
