<?xml version="1.0" encoding="utf-8"?>
<!-- Generator: Adobe Illustrator 22.1.0, SVG Export Plug-In . SVG Version: 6.00 Build 0)  -->
<svg version="1.1" id="Livello_1" xmlns="http://www.w3.org/2000/svg" xmlns:xlink="http://www.w3.org/1999/xlink" x="0px" y="0px"
	 viewBox="0 0 180 180" style="enable-background:new 0 0 180 180;" xml:space="preserve">
<style type="text/css">
	.st0{clip-path:url(#SVGID_2_);}
	.st1{clip-path:url(#SVGID_4_);fill:#363636;}
	.st2{clip-path:url(#SVGID_4_);fill:#EF434D;}
	.st3{clip-path:url(#SVGID_4_);fill:none;stroke:#363636;stroke-width:6.2331;stroke-miterlimit:10;}
</style>
<g id="Congress_1_">
	<g>
		<defs>
			<rect id="SVGID_1_" x="8" y="9" width="164" height="164"/>
		</defs>
		<clipPath id="SVGID_2_">
			<use xlink:href="#SVGID_1_"  style="overflow:visible;"/>
		</clipPath>
		<g class="st0">
			<defs>
				<rect id="SVGID_3_" x="8" y="9" width="164" height="164"/>
			</defs>
			<clipPath id="SVGID_4_">
				<use xlink:href="#SVGID_3_"  style="overflow:visible;"/>
			</clipPath>
			<path class="st1" d="M65.2,34.9l-7.3-2.4C50.4,25,38,25.5,31.2,34c-5.3,6.6-5.1,16.2,0.3,22.7c3.7,4.4,9,6.5,14.2,6.4
				c2.9-0.1,5.8,1.1,7.9,3.1l3,3l12.7-12.7l-3.8-3.8c-0.7-0.7-0.7-1.8,0-2.5l2-2c1.7-1.7,1.7-4.4,0-6.1l-3.3-3.3l1.5-1.5
				C66.6,36.4,66.4,35.3,65.2,34.9"/>
			<path class="st2" d="M32.8,68.9l-6.9,3.4c-10.6,0-19,9.1-17.8,20c0.9,8.4,7.8,15.1,16.3,15.8c5.7,0.5,10.9-1.8,14.5-5.5
				c2-2.1,4.9-3.4,7.8-3.3l4.3,0l0-17.9l-5.4,0c-1,0-1.8-0.8-1.8-1.8l0-2.9c0-2.4-1.9-4.3-4.3-4.3l-4.7,0l0-2.2
				C34.9,68.9,33.9,68.3,32.8,68.9"/>
			<path class="st1" d="M33.9,115.8l-2.4,7.3c-7.5,7.5-7,19.9,1.5,26.7c6.6,5.3,16.2,5.1,22.7-0.3c4.4-3.7,6.5-9,6.4-14.2
				c-0.1-2.9,1.1-5.8,3.1-7.9l3-3l-12.7-12.7l-3.8,3.8c-0.7,0.7-1.8,0.7-2.5,0l-2-2c-1.7-1.7-4.4-1.7-6.1,0l-3.3,3.3l-1.5-1.5
				C35.4,114.4,34.3,114.6,33.9,115.8"/>
			<path class="st2" d="M67.9,148.2l3.4,6.9c0,10.6,9.1,19,20,17.8c8.4-0.9,15.1-7.8,15.8-16.3c0.5-5.7-1.8-10.9-5.5-14.5
				c-2.1-2-3.4-4.9-3.3-7.8l0-4.3l-17.9,0l0,5.4c0,1-0.8,1.8-1.8,1.8l-2.9,0c-2.4,0-4.3,1.9-4.3,4.3l0,4.7l-2.2,0
				C67.9,146.1,67.3,147.1,67.9,148.2"/>
			<path class="st1" d="M114.8,147.1l7.3,2.4c7.5,7.5,19.9,7,26.7-1.5c5.3-6.6,5.1-16.2-0.3-22.7c-3.7-4.4-9-6.5-14.2-6.4
				c-2.9,0.1-5.8-1.1-7.9-3.1l-3-3l-12.7,12.7l3.8,3.8c0.7,0.7,0.7,1.8,0,2.5l-2,2c-1.7,1.7-1.7,4.4,0,6.1l3.3,3.3l-1.5,1.5
				C113.4,145.6,113.6,146.7,114.8,147.1"/>
			<path class="st2" d="M147.2,113.1l6.9-3.4c10.6,0,19-9.1,17.8-20c-0.9-8.4-7.8-15.1-16.3-15.8c-5.7-0.5-10.9,1.8-14.5,5.5
				c-2,2.1-4.9,3.4-7.8,3.3l-4.3,0l0,17.9l5.4,0c1,0,1.8,0.8,1.8,1.8l0,2.9c0,2.4,1.9,4.3,4.3,4.3l4.7,0v2.2
				C145.1,113.1,146.1,113.7,147.2,113.1"/>
			<path class="st1" d="M146.1,66.2l2.4-7.3c7.5-7.5,7-19.9-1.5-26.7c-6.6-5.3-16.2-5.1-22.7,0.3c-4.4,3.7-6.5,9-6.4,14.2
				c0.1,2.9-1.1,5.8-3.1,7.9l-3,3l12.7,12.7l3.8-3.8c0.7-0.7,1.8-0.7,2.5,0l2,2c1.7,1.7,4.4,1.7,6.1,0l3.3-3.3l1.5,1.5
				C144.6,67.6,145.7,67.4,146.1,66.2"/>
			<path class="st2" d="M112.1,33.8l-3.4-6.9c0-10.6-9.1-19-20-17.8c-8.4,0.9-15.1,7.8-15.8,16.3c-0.5,5.7,1.8,10.9,5.5,14.5
				c2.1,2,3.4,4.9,3.3,7.8l0,4.3l17.9,0l0-5.4c0-1,0.8-1.8,1.8-1.8l2.9,0c2.4,0,4.3-1.9,4.3-4.3l0-4.7h2.2
				C112.1,35.9,112.7,34.9,112.1,33.8"/>
			<circle class="st3" cx="90" cy="91" r="31.7"/>
			<path class="st1" d="M112.3,91c0,12.3-10,22.3-22.3,22.3s-22.3-10-22.3-22.3s10-22.3,22.3-22.3S112.3,78.7,112.3,91"/>
		</g>
	</g>
</g>
</svg>
