<?xml version="1.0" encoding="utf-8"?>
<!-- Generator: Adobe Illustrator 22.1.0, SVG Export Plug-In . SVG Version: 6.00 Build 0)  -->
<svg version="1.1" id="Livello_1" xmlns="http://www.w3.org/2000/svg" xmlns:xlink="http://www.w3.org/1999/xlink" x="0px" y="0px"
	 viewBox="0 0 180 180" style="enable-background:new 0 0 180 180;" xml:space="preserve">
<style type="text/css">
	.st0{clip-path:url(#SVGID_2_);}
	.st1{clip-path:url(#SVGID_4_);fill:#363636;}
	.st2{clip-path:url(#SVGID_4_);fill:#FFFFFF;}
	.st3{clip-path:url(#SVGID_4_);fill:#D7D7D7;}
	.st4{clip-path:url(#SVGID_4_);fill:#EF434D;}
	.st5{clip-path:url(#SVGID_4_);fill:#F77D71;}
	.st6{clip-path:url(#SVGID_4_);}
	.st7{clip-path:url(#SVGID_4_);fill:#E5E4E3;}
</style>
<g id="Digital_literature_1_">
	<g>
		<defs>
			<rect id="SVGID_1_" x="3" y="44.4" width="171" height="98"/>
		</defs>
		<clipPath id="SVGID_2_">
			<use xlink:href="#SVGID_1_"  style="overflow:visible;"/>
		</clipPath>
		<g class="st0">
			<defs>
				<rect id="SVGID_3_" x="3" y="44.4" width="171" height="98"/>
			</defs>
			<clipPath id="SVGID_4_">
				<use xlink:href="#SVGID_3_"  style="overflow:visible;"/>
			</clipPath>
			<path class="st1" d="M152.8,140H26.7c-3,0-5.4-2.4-5.4-5.4V49.8c0-3,2.4-5.4,5.4-5.4h126.1c3,0,5.4,2.4,5.4,5.4v84.8
				C158.3,137.6,155.8,140,152.8,140"/>
			<path class="st2" d="M151.1,124L151,61l-11.8-11.7L29.9,49.5c-1.7,0-3,1.4-3,3l0.2,71.7c0,5.2-0.1-68.8-0.1-63.6l0.2,71.7
				c0,1.7,1.4,3,3,3l118-0.2c1.7,0,3-1.4,3-3L151,63.6C150.9,58.4,151.1,129.1,151.1,124"/>
			<path class="st3" d="M139.3,49.4L151,61.1l-10.3,0c-0.8,0-1.5-0.7-1.5-1.5L139.3,49.4z"/>
			<path class="st4" d="M169.3,142.3c-0.2,0.1-163.1,0-163.1,0s-2.6-3.6-3-4.9c-0.5-1.7,0-7,0-7h17.7h10.5h46v3.7h22.5v-3.7h74
				l0.1,5.8C173.4,139.3,169.5,142.2,169.3,142.3"/>
			<rect x="99.8" y="130.3" class="st5" width="74.2" height="3.7"/>
			<rect x="3.2" y="130.3" class="st5" width="74.2" height="3.7"/>
			<polygon class="st2" points="119.8,63.9 119.8,75.3 59.9,75.3 57.7,73.9 56.7,70.2 57.1,65.8 59.1,63.4 62.2,62.9 			"/>
			<path class="st4" d="M60.9,64.3h60.7c0.3,0,0.6-0.3,0.6-0.6v-1.2c0-0.3-0.3-0.6-0.6-0.6H60.9c-2.9,0-5.3,2.4-5.3,5.3v4.4
				c0,2.9,2.4,5.3,5.3,5.3h60.7c0.4,0,0.7-0.3,0.7-0.7v-1.1c0-0.4-0.3-0.7-0.7-0.7H60.9c-1.6,0-2.9-1.3-2.9-2.9v-4.4
				C58,65.6,59.3,64.3,60.9,64.3"/>
			<path class="st1" d="M64.3,67.9v7.6c0,0.5,0.5,0.8,0.9,0.5l3.1-1.7c0.2-0.1,0.4-0.1,0.6,0l3.1,1.7c0.4,0.2,0.9-0.1,0.9-0.5v-7.6
				H64.3z"/>
			<polygon class="st2" points="60,104.3 60,93.5 115.8,93.5 118.2,94.9 119.1,98.4 118.7,102.5 116.6,104.7 113.4,105.2 			"/>
			<path class="st1" d="M114.8,103.5H58.1c-0.4,0-0.6,0.3-0.6,0.6v1c0,0.4,0.3,0.6,0.6,0.6h56.6c3.1,0,5.6-2.3,5.6-5v-4.1
				c0-2.8-2.5-5-5.6-5H58.1c-0.4,0-0.6,0.3-0.6,0.6v1c0,0.4,0.3,0.6,0.6,0.6h56.6c1.7,0,3.1,1.2,3.1,2.8v4.1
				C117.8,102.3,116.4,103.5,114.8,103.5"/>
			<rect x="68.1" y="84.3" class="st1" width="2.2" height="7.4"/>
			<path class="st1" d="M99.2,84.3v3.6c0,0.8-0.7,1.5-1.5,1.5H83.4c-0.8,0-1.5-0.7-1.5-1.5v-3.6h-8.8v7.4H108v-7.4H99.2z"/>
			<path class="st1" d="M61.7,84.3v5.9c0,0.8,0.7,1.5,1.5,1.5h2v-7.4H61.7z"/>
			<path class="st1" d="M116,91.7h2c0.8,0,1.5-0.7,1.5-1.5v-5.9H116V91.7z"/>
			<rect x="110.9" y="84.3" class="st1" width="2.2" height="7.4"/>
			<path class="st6" d="M65.2,76.9h-2c-0.8,0-1.5,0.7-1.5,1.5v5.9h3.5V76.9z"/>
			<path class="st6" d="M116,76.9v7.4h3.5v-5.9c0-0.8-0.7-1.5-1.5-1.5H116z"/>
			<rect x="68.1" y="76.9" class="st6" width="2.2" height="7.4"/>
			<path class="st6" d="M82,84.3v-3.6c0-0.8,0.7-1.5,1.5-1.5h14.3c0.8,0,1.5,0.7,1.5,1.5v3.6h8.8v-7.4H73.2v7.4H82z"/>
			<rect x="110.9" y="76.9" class="st6" width="2.2" height="7.4"/>
			<rect x="65.2" y="84.3" class="st2" width="2.9" height="7.4"/>
			<rect x="65.2" y="76.9" class="st2" width="2.9" height="7.4"/>
			<rect x="70.3" y="84.3" class="st2" width="2.9" height="7.4"/>
			<rect x="70.3" y="76.9" class="st2" width="2.9" height="7.4"/>
			<rect x="108" y="84.3" class="st2" width="2.9" height="7.4"/>
			<rect x="108" y="76.9" class="st2" width="2.9" height="7.4"/>
			<rect x="113.1" y="84.3" class="st2" width="2.9" height="7.4"/>
			<rect x="113.1" y="76.9" class="st2" width="2.9" height="7.4"/>
			<path class="st2" d="M83.4,89.4h14.3c0.8,0,1.5-0.7,1.5-1.5v-3.6H82v3.6C82,88.7,82.6,89.4,83.4,89.4"/>
			<path class="st2" d="M82,80.7v3.6h17.3v-3.6c0-0.8-0.7-1.5-1.5-1.5H83.4C82.6,79.2,82,79.9,82,80.7"/>
			<rect x="58.5" y="112.9" class="st5" width="2.1" height="7.1"/>
			<path class="st5" d="M96.8,112.9v3.6c0,0.7-0.6,1.3-1.3,1.3h-14c-0.8,0-1.4-0.6-1.4-1.4v-3.5H63.4v7.1h50.1v-7.1H96.8z"/>
			<path class="st5" d="M52.3,112.9v5.8c0,0.8,0.6,1.4,1.4,1.4h2v-7.1H52.3z"/>
			<path class="st5" d="M121.2,120.1h1.9c0.8,0,1.5-0.7,1.5-1.5v-5.7h-3.4V120.1z"/>
			<rect x="116.3" y="112.9" class="st5" width="2.1" height="7.1"/>
			<path class="st4" d="M55.7,105.8h-1.9c-0.8,0-1.5,0.7-1.5,1.5v5.7h3.4V105.8z"/>
			<path class="st4" d="M121.2,105.8v7.1h3.4v-5.7c0-0.8-0.7-1.5-1.5-1.5H121.2z"/>
			<rect x="58.5" y="105.8" class="st4" width="2.1" height="7.1"/>
			<path class="st4" d="M80.1,112.9v-3.4c0-0.8,0.7-1.5,1.5-1.5h13.7c0.8,0,1.5,0.7,1.5,1.5v3.4h16.7v-7.1H63.4v7.1H80.1z"/>
			<rect x="116.3" y="105.8" class="st4" width="2.1" height="7.1"/>
			<rect x="55.7" y="112.9" class="st2" width="2.8" height="7.1"/>
			<rect x="55.7" y="105.8" class="st7" width="2.8" height="7.1"/>
			<rect x="60.6" y="112.9" class="st2" width="2.8" height="7.1"/>
			<rect x="60.6" y="105.8" class="st7" width="2.8" height="7.1"/>
			<rect x="113.5" y="112.9" class="st2" width="2.8" height="7.1"/>
			<rect x="113.5" y="105.8" class="st7" width="2.8" height="7.1"/>
			<rect x="118.4" y="112.9" class="st2" width="2.8" height="7.1"/>
			<rect x="118.4" y="105.8" class="st7" width="2.8" height="7.1"/>
			<path class="st2" d="M81.6,117.9h13.7c0.8,0,1.5-0.7,1.5-1.5v-3.4H80.1v3.4C80.1,117.2,80.8,117.9,81.6,117.9"/>
			<path class="st7" d="M80.1,109.5v3.5h16.7v-3.5c0-0.8-0.7-1.5-1.5-1.5H81.6C80.8,108,80.1,108.7,80.1,109.5"/>
			<path class="st4" d="M99.2,96.5v7.6c0,0.5,0.5,0.8,0.9,0.5l3.1-1.7c0.2-0.1,0.4-0.1,0.6,0l3.1,1.7c0.4,0.2,0.9-0.1,0.9-0.5v-7.6
				H99.2z"/>
		</g>
	</g>
</g>
</svg>
