<?xml version="1.0" encoding="utf-8"?>
<!-- Generator: Adobe Illustrator 22.1.0, SVG Export Plug-In . SVG Version: 6.00 Build 0)  -->
<svg version="1.1" id="Livello_1" xmlns="http://www.w3.org/2000/svg" xmlns:xlink="http://www.w3.org/1999/xlink" x="0px" y="0px"
	 viewBox="0 0 180 180" style="enable-background:new 0 0 180 180;" xml:space="preserve">
<style type="text/css">
	.st0{fill:#F26971;}
	.st1{fill:#EF434D;}
	.st2{fill:#FFFFFF;}
	.st3{fill:#363636;}
</style>
<path class="st0" d="M173.4,103.6l-10.1-20.1c0-30.9-26.7-55.5-58.3-52C80.4,34.1,60.8,54.3,58.8,79c-1.4,16.7,5.1,32,16.2,42.5
	c6.3,5.9,9.8,14.2,9.8,22.8l0,12.5h52.4l0-15.7c0-2.9,2.3-5.2,5.2-5.2h8.4c6.9,0,12.6-5.6,12.6-12.6v-13.6h6.3
	C173.3,109.6,175,106.9,173.4,103.6z"/>
<path class="st1" d="M159.7,103.8l-10.1-20.1c0-30.9-26.7-55.5-58.3-52c-24.6,2.7-44.2,22.9-46.2,47.6c-1.4,16.7,5.1,32,16.2,42.5
	c6.3,5.9,9.8,14.2,9.8,22.8l0,12.5h52.4l0-15.7c0-2.9,2.3-5.2,5.2-5.2h8.4c6.9,0,12.6-5.6,12.6-12.6v-13.6h6.3
	C159.6,109.9,161.3,107.1,159.7,103.8z"/>
<path class="st2" d="M146.9,103.8l-10.1-20.1c0-30.9-26.7-55.5-58.3-52C54,34.4,34.4,54.6,32.3,79.2c-1.4,16.7,5.1,32,16.2,42.5
	c6.3,5.9,9.8,14.2,9.8,22.8l0,12.5h52.4l0-15.7c0-2.9,2.3-5.2,5.2-5.2h8.4c6.9,0,12.6-5.6,12.6-12.6v-13.6h6.3
	C146.9,109.9,148.6,107.1,146.9,103.8z"/>
<path d="M131.2,103.5l-10.1-20.1c0-30.9-26.7-55.5-58.3-52c-24.6,2.7-44.2,22.9-46.2,47.6c-1.4,16.7,5.1,32,16.2,42.5
	c6.3,5.9,9.8,14.2,9.8,22.8l0,12.5h52.4l0-15.7c0-2.9,2.3-5.2,5.2-5.2h8.4c6.9,0,12.6-5.6,12.6-12.6v-13.6h6.3
	C131.2,109.6,132.9,106.8,131.2,103.5z"/>
<path class="st3" d="M118.9,103.5l-10.1-20.1c0-30.9-26.7-55.5-58.3-52C25.9,34.1,6.3,54.2,4.3,78.9c-1.4,16.7,5.1,32,16.2,42.5
	c6.3,5.9,9.8,14.2,9.8,22.8l0,12.5h52.4l0-15.7c0-2.9,2.3-5.2,5.2-5.2h8.4c6.9,0,12.6-5.6,12.6-12.6v-13.6h6.3
	C118.9,109.6,120.6,106.8,118.9,103.5z"/>
</svg>
