<?xml version="1.0" encoding="utf-8"?>
<!-- Generator: Adobe Illustrator 22.1.0, SVG Export Plug-In . SVG Version: 6.00 Build 0)  -->
<svg version="1.1" id="Livello_1" xmlns="http://www.w3.org/2000/svg" xmlns:xlink="http://www.w3.org/1999/xlink" x="0px" y="0px"
	 viewBox="0 0 180 180" style="enable-background:new 0 0 180 180;" xml:space="preserve">
<style type="text/css">
	.st0{clip-path:url(#SVGID_2_);}
	.st1{clip-path:url(#SVGID_4_);fill:#363636;}
	.st2{clip-path:url(#SVGID_4_);fill:#FFFFFF;}
	.st3{clip-path:url(#SVGID_4_);fill:#D7D7D7;}
	.st4{clip-path:url(#SVGID_4_);fill:none;stroke:#EF434D;stroke-width:4.7528;stroke-linecap:square;}
	.st5{clip-path:url(#SVGID_4_);fill:none;stroke:#363636;stroke-width:4.7528;stroke-linecap:square;}
	.st6{clip-path:url(#SVGID_4_);fill:#EEE3DB;}
	.st7{clip-path:url(#SVGID_4_);fill:#EFEFEF;}
	.st8{clip-path:url(#SVGID_4_);fill:#DAD1CF;}
	.st9{clip-path:url(#SVGID_4_);fill:#F77D71;}
	.st10{clip-path:url(#SVGID_4_);fill:#EF434D;}
	.st11{clip-path:url(#SVGID_4_);}
</style>
<g id="Scientific_paper_1_">
	<g>
		<defs>
			<rect id="SVGID_1_" x="28.7" y="7" width="122.6" height="164"/>
		</defs>
		<clipPath id="SVGID_2_">
			<use xlink:href="#SVGID_1_"  style="overflow:visible;"/>
		</clipPath>
		<g class="st0">
			<defs>
				<rect id="SVGID_3_" x="28.7" y="7" width="122.6" height="164"/>
			</defs>
			<clipPath id="SVGID_4_">
				<use xlink:href="#SVGID_3_"  style="overflow:visible;"/>
			</clipPath>
			<path class="st1" d="M142.1,160.3H34.9c-3.4,0-6.2-2.8-6.2-6.2v-141c0-3.4,2.8-6.2,6.2-6.2h107.3c3.4,0,6.2,2.8,6.2,6.2v141
				C148.3,157.6,145.6,160.3,142.1,160.3"/>
			<path class="st2" d="M142.1,142.1l-0.1-116.1l-13.4-13.3l-90,0.2c-1.9,0-3.4,1.5-3.4,3.4l0.2,126.1c0,5.9-0.2-122.8-0.1-116.9
				l0.2,126.1c0,1.9,1.5,3.4,3.4,3.4l99.9-0.3c1.9,0,3.4-1.5,3.4-3.4l-0.2-122.4C141.9,22.9,142.1,148,142.1,142.1"/>
			<path class="st3" d="M128.8,12.7L142.2,26l-11.7,0c-0.9,0-1.7-0.8-1.7-1.7L128.8,12.7z"/>
			<line class="st4" x1="118.3" y1="69.8" x2="52.1" y2="69.8"/>
			<line class="st5" x1="85.2" y1="35.6" x2="52.1" y2="35.6"/>
			<line class="st5" x1="107" y1="46.7" x2="52.1" y2="46.7"/>
			<line class="st4" x1="118.3" y1="94.2" x2="52.1" y2="94.2"/>
			<line class="st4" x1="52.1" y1="82" x2="118.3" y2="82"/>
			<line class="st4" x1="118.3" y1="106.5" x2="52.1" y2="106.5"/>
			<line class="st4" x1="90.5" y1="118.7" x2="52.1" y2="118.7"/>
			<path class="st6" d="M115.3,120.8c0-0.5-0.3-0.9-0.7-1.1l0.7,1.2V120.8z"/>
			<path class="st7" d="M107,119.6v29.5c5,0.4,10.1,0.9,10.1,0.9s5.3,8.8,7,11.3c1.6,2.5,2.4,3.6,1.9,5.7c-0.5,2.1-3.2,2-3.2,2
				l-15.7,0v1.8l17.6,0c2.5,0,4.4-1.5,4.4-3.5c0-1.9-0.8-3.1-0.9-3.3l-14.3-24.9l0-16.1l0,0h0.4c0.6,0,1.1-0.5,1.1-1.2v-1.1
				l-0.7-1.2c-0.1-0.1-0.3-0.1-0.4-0.1H107z"/>
			<path class="st8" d="M85.1,168.3c0.1,0.5,0.4,0.9,0.7,1.3L85.1,168.3z"/>
			<path class="st3" d="M89.4,171l17.6,0v-1.8l-13.7,0c-4.1,0-4.4-0.8-4.9-2.2c-0.5-1.3,0.5-3.1,0.5-3.1l9-14.8
				c0.4-0.4,4.7-0.2,9.1,0.2v-29.5h-7.1c-0.5,0-0.9,0.3-1.1,0.7c0,0,0,0,0,0c0,0.1-0.1,0.2-0.1,0.4c0,0,0,0,0,0v1.3
				c0,0.6,0.5,1.2,1.1,1.2h0.4l0,16.1l-14.4,24.8c-0.1,0.2-0.9,1.4-0.9,3.3c0,0.3,0,0.6,0.1,0.9l0.7,1.3
				C86.6,170.4,87.9,171,89.4,171"/>
			<path class="st9" d="M125.9,167.1c0.5-2.1-0.3-3.2-1.9-5.7c-1.6-2.5-7-11.3-7-11.3s-5.1-0.6-10.1-0.9v20l15.7,0
				C122.7,169.2,125.4,169.3,125.9,167.1"/>
			<path class="st10" d="M97.9,149l-9,14.8c0,0-1,1.8-0.5,3.1c0.5,1.3,0.8,2.2,4.9,2.2l13.7,0v-20C102.5,148.8,98.2,148.6,97.9,149"
				/>
			<path class="st8" d="M125.1,151.1l-1.4-1.6C124.1,150.1,124.6,150.6,125.1,151.1"/>
			<path class="st3" d="M135.9,153.4c-7.2,0-13.1-5.9-13.2-13.1l13.2,0v-31.6l-5.5,0c-1.4,0-2.6,1.2-2.6,2.6c0,1.4,1.1,2.5,2.5,2.6
				l0,12.1c-5.7,2.2-9.8,7.8-9.8,14.3c0,3.4,1.2,6.6,3.1,9.2l1.4,1.6c2.8,2.8,6.6,4.5,10.8,4.5V153.4z"/>
			<path class="st6" d="M142.8,109.1l0.6,0.7C143.2,109.6,143,109.3,142.8,109.1"/>
			<path class="st7" d="M135.9,108.6v31.6l13.2,0c0,7.3-5.8,13.2-13.1,13.2c0,0,0,0-0.1,0v2.2c0,0,0,0,0.1,0
				c8.5,0,15.3-6.9,15.3-15.4c0-6.4-3.9-11.8-9.5-14.1l0-12.4c1.1-0.3,2-1.3,2-2.5c0-0.5-0.1-0.9-0.4-1.3l-0.6-0.7
				c-0.4-0.3-1-0.6-1.6-0.6L135.9,108.6z"/>
			<path class="st11" d="M122.8,140.3c0,7.3,5.9,13.1,13.2,13.1v-13.2L122.8,140.3z"/>
			<path class="st1" d="M149.1,140.2l-13.2,0v13.2c0,0,0,0,0.1,0C143.3,153.4,149.1,147.5,149.1,140.2"/>
		</g>
	</g>
</g>
</svg>
