<?xml version="1.0" encoding="utf-8"?>
<!-- Generator: Adobe Illustrator 22.1.0, SVG Export Plug-In . SVG Version: 6.00 Build 0)  -->
<svg version="1.1" id="Livello_1" xmlns="http://www.w3.org/2000/svg" xmlns:xlink="http://www.w3.org/1999/xlink" x="0px" y="0px"
	 viewBox="0 0 180 180" style="enable-background:new 0 0 180 180;" xml:space="preserve">
<style type="text/css">
	.st0{clip-path:url(#SVGID_2_);}
	.st1{clip-path:url(#SVGID_4_);fill:#363636;}
	.st2{clip-path:url(#SVGID_4_);fill:#FFFFFF;}
	.st3{clip-path:url(#SVGID_4_);fill:#D7D7D7;}
	.st4{clip-path:url(#SVGID_4_);fill:#EF434D;}
	.st5{clip-path:url(#SVGID_4_);fill:none;stroke:#363636;stroke-width:5.1695;stroke-linecap:square;}
	.st6{clip-path:url(#SVGID_4_);fill:none;stroke:#FFFFFF;stroke-width:4.3128;stroke-linecap:square;stroke-miterlimit:10;}
	.st7{clip-path:url(#SVGID_4_);fill:none;stroke:#FFFFFF;stroke-width:0.819;stroke-miterlimit:10;}
</style>
<g id="Listed_IF_1_">
	<g>
		<defs>
			<rect id="SVGID_1_" x="24.9" y="7.2" width="130.1" height="166.8"/>
		</defs>
		<clipPath id="SVGID_2_">
			<use xlink:href="#SVGID_1_"  style="overflow:visible;"/>
		</clipPath>
		<g class="st0">
			<defs>
				<rect id="SVGID_3_" x="24.9" y="7.2" width="130.1" height="166.8"/>
			</defs>
			<clipPath id="SVGID_4_">
				<use xlink:href="#SVGID_3_"  style="overflow:visible;"/>
			</clipPath>
			<path class="st1" d="M147.5,173.6H30.8c-3.7,0-6.7-3-6.7-6.7V13.6c0-3.7,3-6.7,6.7-6.7h116.7c3.7,0,6.7,3,6.7,6.7v153.3
				C154.2,170.6,151.2,173.6,147.5,173.6"/>
			<path class="st2" d="M147.4,153.8l-0.2-126.3L132.7,13l-97.9,0.3c-2.1,0-3.7,1.7-3.7,3.7l0.2,137.1c0,6.4-0.2-133.6-0.2-127.2
				l0.2,137.1c0,2.1,1.7,3.7,3.7,3.7l108.7-0.3c2.1,0,3.7-1.7,3.7-3.7l-0.2-133.2C147.3,24.2,147.4,160.2,147.4,153.8"/>
			<path class="st3" d="M133,13.1l14.6,14.5l-12.7,0c-1,0-1.8-0.8-1.8-1.8L133,13.1z"/>
			<rect x="41.6" y="40.7" class="st4" width="20.9" height="20.9"/>
			<line class="st5" x1="129.4" y1="79" x2="72.9" y2="79"/>
			<rect x="43.7" y="70.5" class="st1" width="16.7" height="16.7"/>
			<line class="st5" x1="129.4" y1="106.7" x2="72.9" y2="106.7"/>
			<rect x="43.7" y="98.2" class="st1" width="16.7" height="16.7"/>
			<line class="st5" x1="129.4" y1="134.4" x2="72.9" y2="134.4"/>
			<rect x="43.7" y="125.9" class="st1" width="16.7" height="16.7"/>
			<polyline class="st6" points="46.8,51.4 51.5,57.7 60.4,38.7 			"/>
			<polygon class="st1" points="77.1,61.6 72.1,61.5 72.1,40.7 77.1,40.7 			"/>
			<polygon class="st1" points="93.7,53.2 85.6,53.2 85.6,61.5 80.6,61.5 80.6,40.7 94.5,40.7 94.5,44.6 85.6,44.6 85.6,49.4 
				93.7,49.4 			"/>
			<path class="st4" d="M75.8,61.6c1.9-0.5,16.1-3.3,16.1-3.3l7.3-8.2l3.1,2.3l-8.2,9.3l-17.7,3.7c0,0-1.4,0.1-1.7-1.5
				C74.4,62.2,75.8,61.6,75.8,61.6"/>
			<path class="st7" d="M75.8,61.6c1.9-0.5,16.1-3.3,16.1-3.3l7.3-8.2l3.1,2.3l-8.2,9.3l-17.7,3.7c0,0-1.4,0.1-1.7-1.5
				C74.4,62.2,75.8,61.6,75.8,61.6z"/>
			<polygon class="st4" points="95.6,48.5 104.6,55.3 105.8,44.3 			"/>
		</g>
	</g>
</g>
</svg>
