<?xml version="1.0" encoding="utf-8"?>
<!-- Generator: Adobe Illustrator 22.1.0, SVG Export Plug-In . SVG Version: 6.00 Build 0)  -->
<svg version="1.1" id="Livello_1" xmlns="http://www.w3.org/2000/svg" xmlns:xlink="http://www.w3.org/1999/xlink" x="0px" y="0px"
	 viewBox="0 0 201 52" style="enable-background:new 0 0 201 52;" xml:space="preserve">
<style type="text/css">
	.st0{fill:#EF3340;}
	.st1{fill:#363636;}
</style>
<g>
	<path class="st0" d="M42.9,36.9l6.4-34h9.8L48.6,50.7h-9.9l-7.8-31.9l-7.8,31.9h-9.9L2.6,2.9h9.8l6.5,33.9l7.9-33.9h8.3L42.9,36.9z
		"/>
	<path class="st1" d="M82.1,33.2h-7.8v17.5h-9.8V2.9h17.7c5.6,0,10,1.3,13.1,3.8c3.1,2.5,4.6,6.1,4.6,10.7c0,3.3-0.7,6-2.1,8.1
		c-1.4,2.2-3.5,3.9-6.4,5.2l10.3,19.5v0.5H91.1L82.1,33.2z M74.3,25.2h7.9c2.5,0,4.4-0.6,5.7-1.9c1.4-1.3,2-3,2-5.2
		c0-2.3-0.6-4-1.9-5.3s-3.2-1.9-5.9-1.9h-7.9V25.2z"/>
	<path class="st1" d="M117.8,50.7h-9.8V2.9h9.8V50.7z"/>
	<path class="st1" d="M161.9,10.9h-14.6v39.8h-9.8V10.9H123v-8h38.9V10.9z"/>
	<path class="st1" d="M196.2,30h-18.9v12.8h22.2v7.9h-32V2.9h31.9v8h-22.1v11.4h18.9V30z"/>
</g>
</svg>
